<?xml version="1.0" encoding="utf-8"?>
<!-- Generator: Adobe Illustrator 27.4.1, SVG Export Plug-In . SVG Version: 6.00 Build 0)  -->
<svg version="1.1" id="Ebene_1" xmlns="http://www.w3.org/2000/svg" xmlns:xlink="http://www.w3.org/1999/xlink" x="0px" y="0px"
	 viewBox="0 0 610.9 92.8" style="enable-background:new 0 0 610.9 92.8;" xml:space="preserve">
<style type="text/css">
	.st0{fill:#FFFFFF;}
</style>
<g>
	<g>
		<path class="st0" d="M192.8,36.3c0.7,0,0.9,0.3,0.9,0.9v47.4c0,2.6-0.9,4.3-2.6,4.9c-1.7,0.7-2.6,0.8-4.5,0.8
			c-1.5,0-2.8-0.1-3.6-0.2c-0.6-0.1-0.9-0.5-0.9-1v-2.6c0-0.6,0.4-0.9,1-0.9h2c2.6,0,3.1-0.4,3.1-3.4v-45c0-0.7,0.3-0.9,0.9-0.9
			H192.8z M191.1,28.6c-2.3,0-3.4-1.2-3.4-3.5c0-2.3,1.2-3.4,3.4-3.4c2.3,0,3.4,1.1,3.4,3.4C194.6,27.5,193.4,28.6,191.1,28.6z"/>
		<path class="st0" d="M235.4,36.3c0.7,0,0.9,0.3,0.9,0.9v36.9c0,0.7-0.1,0.7-0.9,0.9c-3.8,0.7-8.7,1-14.7,1
			c-6.6,0-9.6-0.4-12.6-2.6c-2.8-2.3-3.7-6.4-3.7-14V37.2c0-0.7,0.4-0.9,1-0.9h3.4c0.7,0,0.9,0.3,0.9,0.9v22.2
			c0,5.6,0.5,8.8,2.3,10.3s3.5,1.8,7.7,1.8H231V37.2c0-0.7,0.3-0.9,0.9-0.9H235.4z"/>
		<path class="st0" d="M251.6,21.2c0.7,0,0.9,0.3,0.9,0.9v52.8c0,0.7-0.3,0.9-0.9,0.9h-3.4c-0.7,0-0.9-0.3-0.9-0.9V22
			c0-0.6,0.3-0.9,0.9-0.9H251.6z"/>
		<path class="st0" d="M269.5,25.1c0,2.3-1.1,3.5-3.4,3.5c-2.3,0-3.5-1.2-3.5-3.5c0-2.3,1.2-3.4,3.5-3.4
			C268.4,21.8,269.5,22.9,269.5,25.1z M267.9,36.3c0.7,0,0.9,0.3,0.9,0.9v37.6c0,0.7-0.3,0.9-0.9,0.9h-3.4c-0.7,0-0.9-0.3-0.9-0.9
			V37.2c0-0.7,0.3-0.9,0.9-0.9H267.9z"/>
		<path class="st0" d="M310.4,36.3c0.7,0,0.9,0.3,0.9,0.9v36.9c0,0.7-0.1,0.7-0.9,0.9c-3.8,0.7-8.7,1-14.7,1
			c-6.6,0-9.6-0.4-12.6-2.6c-2.8-2.3-3.7-6.4-3.7-14V37.2c0-0.7,0.4-0.9,1-0.9h3.4c0.7,0,0.9,0.3,0.9,0.9v22.2
			c0,5.6,0.5,8.8,2.3,10.3s3.5,1.8,7.7,1.8H306V37.2c0-0.7,0.3-0.9,0.9-0.9H310.4z"/>
		<path class="st0" d="M345.7,36.4c0.6,0.1,0.9,0.4,0.9,0.9v2.3c0,0.7-0.3,0.9-0.9,0.9h-13.3c-4.2,0-6.4,1.5-6.4,4.4v1.2
			c0,2.6,1.2,4.4,4.9,5.9l10.3,4.2c5.8,2.3,6.9,5.2,6.9,9.8v0.9c0,3.7-1.1,6.2-3.2,7.4s-5.8,1.8-11.1,1.8c-5.3,0-9.6-0.2-12.7-0.6
			c-0.6-0.1-0.9-0.4-0.9-0.9v-2.3c0-0.7,0.3-0.9,0.9-0.9h12.8c6.9,0,8.9-0.9,8.9-4.6v-0.9c0-2.6-1.1-4.1-4.4-5.5l-11-4.4
			c-4.5-1.8-6.8-5.2-6.8-10v-1.6c0-3,1.2-5.3,2.9-6.4c0.8-0.6,1.9-1,3.2-1.4c2.6-0.7,4.5-0.7,7.5-0.7
			C339,35.9,342.7,36.1,345.7,36.4z"/>
		<path class="st0" d="M367.9,23.6c0.8-0.2,1.2,0.1,1.2,1.1v10.4h6.7c0.8,0,1.2,0.4,1.2,1.1v5.8c0,0.7-0.4,1.1-1.2,1.1h-6.7v19.9
			c0,3,1,3.7,4.3,3.7h3c0.8,0,1.2,0.4,1.2,1.1v6.2c0,0.8-0.4,1.2-1.2,1.4c-2.2,0.4-4.2,0.7-6.2,0.7c-3.1,0-4.5,0-6.9-0.7
			c-3.4-0.9-4.8-3.2-5.1-8.8V43.1H354c-0.8,0-1.2-0.4-1.2-1.1v-5.8c0-0.7,0.4-1.1,1.2-1.1h4.3V27c0-0.7,0.4-1,1-1.2L367.9,23.6z"/>
		<path class="st0" d="M412.5,37.6c2.5,2,3.7,5.2,3.7,9.5v25.3c0,1.2-0.5,1.9-1.6,2.3c-4.5,1-10,1.5-16.6,1.5c-6.1,0-9.2-0.3-12.4-2
			c-3.1-1.8-4.4-5-4.5-10.7c0.1-4.7,1.2-7.8,3.6-9.5c2.4-1.7,6.2-2.5,11.4-2.5h9.3v-2.6c0-3.4-2.3-5-6.9-5h-13.2c-0.8,0-1-0.2-1-1.1
			v-6c0-0.8,0.2-0.9,1-1.2c3.7-0.7,8.1-1.1,13.2-1.1C405.4,34.5,410.1,35.6,412.5,37.6z M405.5,58.5h-8.4c-3.8,0-5.1,1.2-5.1,4.4
			c0,3.4,1.5,4.5,6.2,4.5c3.1,0,5.5-0.2,7.3-0.7V58.5z"/>
		<path class="st0" d="M457.2,37.7c2.9,2.6,3.6,6.7,3.6,14.3v22.6c0,0.8-0.4,1.2-1.2,1.2h-8.6c-0.7,0-1.1-0.4-1.1-1.2V54.8
			c0-5.5-0.1-7.8-1.5-9.3c-1.2-1.5-2.6-1.6-6.4-1.6h-6.6v30.7c0,0.8-0.4,1.2-1.1,1.2h-8.7c-0.7,0-1.1-0.4-1.1-1.2V36.9
			c0-0.9,0.4-0.9,1.1-1.1c3.7-0.8,9.5-1.2,17.4-1.2C450.6,34.5,454.4,35.1,457.2,37.7z"/>
		<path class="st0" d="M501.8,37.7c2.9,2.6,3.6,6.7,3.6,14.3v22.6c0,0.8-0.4,1.2-1.2,1.2h-8.6c-0.7,0-1.1-0.4-1.1-1.2V54.8
			c0-5.5-0.1-7.8-1.5-9.3c-1.2-1.5-2.6-1.6-6.4-1.6h-6.6v30.7c0,0.8-0.4,1.2-1.1,1.2h-8.7c-0.7,0-1.1-0.4-1.1-1.2V36.9
			c0-0.9,0.4-0.9,1.1-1.1c3.7-0.8,9.5-1.2,17.4-1.2C495.2,34.5,499,35.1,501.8,37.7z"/>
		<path class="st0" d="M545.3,38.6c2.4,2.7,3.6,8.1,3.6,16.2v2.3c0,1.5-0.5,2-2.3,2h-22.9c0.1,3.2,0.6,5.3,1.7,6.3
			c1.1,0.9,3.3,1.5,6.6,1.5h12.9c0.7,0,1.1,0.4,1.1,1.1v6.1c0,0.7-0.4,1.1-1,1.2c-3.3,0.7-7.9,1-13.9,1c-7.4,0-12.3-1.4-14.7-4.2
			c-2.4-2.8-3.7-8.3-3.7-16.6c0-8.4,1.2-13.9,3.7-16.6c2.4-2.8,7.3-4.2,14.7-4.2C538.2,34.5,543,35.9,545.3,38.6z M523.6,52h14.5
			c-0.1-6.4-1.8-8.1-7.1-8.1C525.5,43.9,523.7,45.6,523.6,52z"/>
		<path class="st0" d="M578.6,35.3c0.8,0.2,1.2,0.7,1.2,1.5v6c0,0.7-0.4,1.1-1.2,1.1h-6.9c-4,0-5.1,0.7-5.1,3.7v27
			c0,0.8-0.4,1.2-1.1,1.2h-8.7c-0.7,0-1.1-0.4-1.1-1.2V44.8c0-3.5,1.2-6.1,2.7-7.6c2.7-2.3,6.4-2.7,10.5-2.7
			C573.1,34.5,576.3,34.8,578.6,35.3z"/>
		<path class="st0" d="M597.3,23.6c0.8-0.2,1.2,0.1,1.2,1.1v10.4h6.7c0.8,0,1.2,0.4,1.2,1.1v5.8c0,0.7-0.4,1.1-1.2,1.1h-6.7v19.9
			c0,3,1,3.7,4.3,3.7h3c0.8,0,1.2,0.4,1.2,1.1v6.2c0,0.8-0.4,1.2-1.2,1.4c-2.2,0.4-4.2,0.7-6.2,0.7c-3.1,0-4.5,0-6.9-0.7
			c-3.4-0.9-4.8-3.2-5.1-8.8V43.1h-4.3c-0.8,0-1.2-0.4-1.2-1.1v-5.8c0-0.7,0.4-1.1,1.2-1.1h4.3V27c0-0.7,0.4-1,1-1.2L597.3,23.6z"/>
	</g>
	<polygon class="st0" points="106.7,2.5 134.3,2.5 91.5,76.6 63.9,76.6 	"/>
	<polygon class="st0" points="27.9,76.6 55.5,76.6 98.3,2.5 70.7,2.5 	"/>
	<polygon class="st0" points="3.9,55.7 19.4,76.6 31.5,55.7 	"/>
	<polygon class="st0" points="142.7,2.5 142.7,2.5 130.7,23.4 170.3,2.5 	"/>
</g>
</svg>
